<svg xmlns="http://www.w3.org/2000/svg" xmlns:xlink="http://www.w3.org/1999/xlink" width="1900" zoomAndPan="magnify" viewBox="0 0 1425 899.99999" height="1200" preserveAspectRatio="xMidYMid meet" version="1.0"><defs><g/><clipPath id="e4389bbe57"><path d="M 29.007812 161 L 1140.507812 161 L 1140.507812 715 L 29.007812 715 Z M 29.007812 161 " clip-rule="nonzero"/></clipPath></defs><g fill="#ffffff" fill-opacity="1"><g transform="translate(126.272932, 666.316656)"><g><path d="M 2.492188 -4.359375 C 2.492188 3.738281 26.15625 4.359375 31.140625 4.359375 C 37.058594 4.359375 56.988281 1.558594 56.988281 -8.40625 C 56.988281 -72.558594 54.496094 -177.5 57.296875 -241.335938 C 63.527344 -223.585938 93.109375 -81.585938 101.515625 -81.585938 C 104.941406 -81.585938 108.992188 -80.652344 112.417969 -80.652344 C 123.003906 -80.652344 128.296875 -85.011719 135.148438 -92.488281 C 142.3125 -99.960938 162.863281 -234.175781 169.402344 -252.546875 L 179.054688 -5.917969 C 178.433594 -5.917969 187.777344 0.933594 204.902344 2.492188 C 212.066406 3.113281 228.878906 4.671875 227.636719 -3.113281 C 218.292969 -72.867188 213 -249.121094 209.574219 -305.484375 C 203.035156 -306.421875 159.75 -307.042969 154.457031 -293.652344 C 134.214844 -244.140625 133.28125 -161.617188 114.597656 -121.136719 L 73.179688 -284.933594 C 60.101562 -291.785156 31.761719 -312.023438 18.996094 -306.109375 C 9.34375 -301.75 13.390625 -35.8125 3.113281 -6.539062 C 2.800781 -5.917969 2.492188 -5.292969 2.492188 -4.359375 Z M 2.492188 -4.359375 "/></g></g></g><g fill="#ffffff" fill-opacity="1"><g transform="translate(361.064071, 666.316656)"><g><path d="M 145.425781 -156.324219 C 148.226562 -160.683594 149.785156 -166.910156 149.785156 -172.207031 C 149.785156 -190.890625 130.167969 -197.429688 114.597656 -197.429688 C 64.460938 -197.429688 9.964844 -120.203125 0.933594 -75.671875 C -1.558594 -63.214844 -3.425781 -50.136719 -3.425781 -37.367188 C -3.425781 -18.996094 0.621094 0.621094 23.042969 0.621094 C 61.347656 0.621094 86.257812 -42.972656 101.515625 -72.246094 C 101.207031 -69.132812 101.207031 -65.707031 101.207031 -62.59375 C 101.207031 -43.285156 103.695312 0.621094 130.789062 0.621094 C 167.535156 0.621094 195.871094 -105.875 205.527344 -130.789062 L 198.363281 -137.953125 C 190.265625 -116.152344 161.929688 -24.914062 138.886719 -24.914062 C 131.722656 -24.914062 131.722656 -42.039062 131.722656 -46.398438 C 131.722656 -76.292969 142.621094 -105.566406 142.621094 -134.835938 C 142.621094 -146.046875 139.195312 -160.371094 125.496094 -160.371094 C 121.757812 -160.371094 118.023438 -159.125 114.597656 -157.882812 C 111.792969 -134.527344 105.253906 -100.894531 94.355469 -80.34375 C 86.257812 -65.082031 59.789062 -21.175781 40.171875 -21.175781 C 31.453125 -21.175781 29.894531 -29.894531 29.894531 -36.746094 C 29.894531 -78.160156 76.292969 -168.15625 120.824219 -168.15625 C 130.476562 -168.15625 138.886719 -163.175781 145.425781 -156.324219 Z M 145.425781 -156.324219 "/></g></g></g><g fill="#ffffff" fill-opacity="1"><g transform="translate(533.264993, 666.316656)"><g><path d="M 16.191406 -196.183594 C 19.308594 -191.824219 19.617188 -180.925781 19.617188 -176.253906 C 19.617188 -128.296875 -0.3125 -80.964844 -0.3125 -32.695312 C -0.3125 -14.949219 5.292969 0 24.914062 0 C 29.582031 0 36.121094 -2.492188 37.679688 -7.472656 C 33.320312 -15.570312 31.453125 -27.09375 31.453125 -36.121094 C 31.453125 -70.6875 85.636719 -182.171875 123.625 -182.171875 C 129.855469 -182.171875 131.101562 -175.941406 131.101562 -170.960938 C 131.101562 -129.855469 99.335938 -89.371094 99.335938 -45.777344 C 99.335938 -24.289062 112.417969 0.3125 136.394531 0.3125 C 180.925781 0.3125 212.6875 -88.4375 222.03125 -121.445312 C 218.292969 -122.382812 213.3125 -123.9375 210.820312 -120.511719 C 206.769531 -96.847656 171.269531 -23.667969 144.492188 -23.667969 C 133.902344 -23.667969 131.101562 -32.074219 131.101562 -41.105469 C 131.101562 -79.40625 163.796875 -123.003906 163.796875 -173.140625 C 163.796875 -188.710938 154.765625 -203.347656 137.640625 -203.347656 C 107.746094 -203.347656 63.527344 -151.652344 53.25 -125.496094 C 56.675781 -140.753906 59.167969 -156.324219 59.167969 -171.894531 C 59.167969 -191.511719 51.691406 -203.347656 30.828125 -203.347656 C 25.222656 -203.347656 18.683594 -201.789062 16.191406 -196.183594 Z M 16.191406 -196.183594 "/></g></g></g><g fill="#ffffff" fill-opacity="1"><g transform="translate(721.347043, 666.316656)"><g><path d="M 97.78125 -95.289062 C 97.78125 -96.847656 96.847656 -99.335938 90.617188 -95.289062 C 85.324219 -75.980469 66.328125 -20.863281 42.972656 -20.863281 C 31.761719 -20.863281 31.761719 -41.417969 31.761719 -48.578125 C 31.761719 -80.03125 37.992188 -116.464844 46.710938 -146.671875 C 50.757812 -161.304688 54.808594 -176.253906 54.808594 -191.511719 C 54.808594 -208.015625 45.464844 -216.113281 29.582031 -216.113281 C 24.914062 -216.113281 18.371094 -214.867188 17.75 -209.261719 C 21.796875 -208.015625 22.421875 -198.363281 22.421875 -195.871094 C 22.421875 -192.757812 22.109375 -189.957031 21.796875 -186.839844 C 15.570312 -141.6875 3.425781 -98.089844 3.425781 -52.003906 C 3.425781 -35.5 5.292969 -1.867188 28.960938 0 C 66.015625 3.113281 97.78125 -68.507812 97.78125 -95.289062 Z M 59.476562 -258.464844 C 59.476562 -268.742188 56.363281 -277.769531 44.53125 -277.769531 C 25.222656 -277.769531 25.847656 -267.804688 25.847656 -250.992188 C 25.847656 -241.027344 32.386719 -236.664062 41.726562 -236.664062 C 55.742188 -236.664062 59.476562 -246.007812 59.476562 -258.464844 Z M 59.476562 -258.464844 "/></g></g></g><g fill="#ffffff" fill-opacity="1"><g transform="translate(789.230922, 666.316656)"><g><path d="M 100.582031 -131.722656 C 102.761719 -128.296875 107.121094 -127.050781 110.546875 -126.117188 C 120.203125 -131.722656 129.230469 -142.621094 129.230469 -154.144531 C 129.230469 -171.582031 113.039062 -183.105469 96.847656 -183.105469 C 41.417969 -183.105469 1.246094 -108.367188 1.246094 -59.167969 C 1.246094 -32.386719 11.210938 1.558594 43.597656 1.558594 C 84.078125 1.558594 133.589844 -66.015625 151.03125 -99.027344 L 140.132812 -102.140625 C 125.496094 -73.492188 86.882812 -30.515625 57.921875 -30.515625 C 40.792969 -30.515625 36.121094 -45.464844 36.121094 -59.789062 C 36.121094 -78.160156 39.546875 -108.679688 56.050781 -133.28125 C 67.261719 -150.097656 87.816406 -162.550781 100.894531 -162.550781 C 107.746094 -162.550781 113.660156 -156.011719 113.660156 -149.160156 C 113.660156 -138.261719 105.566406 -137.640625 100.582031 -131.722656 Z M 100.582031 -131.722656 "/></g></g></g><g fill="#ffffff" fill-opacity="1"><g transform="translate(916.591103, 666.316656)"><g><path d="M 27.402344 -179.054688 C 30.515625 -177.1875 30.828125 -166.601562 30.828125 -164.421875 C 30.828125 -120.203125 0 -66.640625 0 -34.566406 C 0 -15.882812 11.210938 1.867188 31.453125 1.867188 C 57.921875 1.867188 92.796875 -42.664062 102.761719 -65.707031 C 101.828125 -60.101562 101.515625 -54.183594 101.515625 -48.265625 C 101.515625 -28.027344 107.121094 -0.933594 132.65625 -0.933594 C 176.875 -0.933594 191.824219 -80.03125 206.769531 -114.285156 L 200.542969 -124.871094 L 200.230469 -124.5625 C 191.199219 -101.515625 172.207031 -35.1875 152.898438 -30.515625 C 142.933594 -28.027344 141.375 -42.664062 141.375 -50.445312 C 141.375 -94.355469 170.648438 -132.035156 170.648438 -173.449219 C 170.648438 -186.839844 166.289062 -199.296875 150.71875 -199.296875 C 142.933594 -199.296875 134.527344 -197.429688 127.363281 -194.003906 C 130.789062 -188.398438 132.035156 -179.992188 132.035156 -173.449219 C 132.035156 -142.933594 81.277344 -23.042969 47.644531 -23.042969 C 39.238281 -23.042969 37.679688 -31.453125 37.679688 -37.992188 C 37.679688 -80.652344 71.621094 -120.824219 71.621094 -161.617188 C 71.621094 -174.386719 66.953125 -186.21875 52.316406 -186.21875 C 43.597656 -186.21875 35.1875 -182.792969 27.402344 -179.054688 Z M 27.402344 -179.054688 "/></g></g></g><g fill="#ffffff" fill-opacity="1"><g transform="translate(1097.822474, 666.316656)"><g><path d="M 20.242188 -90.929688 C 28.960938 -125.804688 39.238281 -141.375 54.496094 -202.410156 C 65.082031 -200.542969 76.605469 -193.691406 76.605469 -181.234375 C 76.605469 -160.683594 28.648438 -77.851562 28.648438 -28.027344 C 28.648438 -9.03125 38.300781 -1.558594 56.988281 0 C 76.292969 1.558594 142.3125 -24.289062 142.3125 -39.238281 L 142 -40.171875 C 139.195312 -42.351562 135.769531 -43.90625 132.035156 -43.597656 C 122.691406 -34.878906 98.402344 -19.308594 80.03125 -20.550781 C 70.066406 -21.175781 66.328125 -26.15625 66.328125 -35.8125 C 66.328125 -84.390625 108.679688 -134.835938 108.679688 -179.992188 C 108.679688 -210.820312 83.144531 -222.652344 56.988281 -222.652344 C 60.101562 -245.074219 60.101562 -294.273438 28.960938 -294.273438 C -11.210938 -294.273438 -10.898438 -203.96875 42.972656 -202.722656 C 38.925781 -184.351562 22.421875 -134.527344 9.34375 -89.683594 Z M 45.777344 -222.652344 C 14.324219 -218.605469 18.683594 -272.164062 36.433594 -272.164062 C 52.628906 -272.164062 47.644531 -231.371094 45.777344 -222.652344 Z M 45.777344 -222.652344 "/></g></g></g><g fill="#ffffff" fill-opacity="1"><g transform="translate(1206.187638, 666.316656)"><g><path d="M 161.929688 -131.722656 C 149.160156 -103.386719 106.5 -29.894531 74.113281 -29.894531 C 48.265625 -29.894531 39.238281 -53.25 39.238281 -75.359375 C 39.238281 -83.144531 40.171875 -91.242188 42.039062 -98.714844 C 45.464844 -97.78125 49.511719 -97.78125 52.9375 -97.78125 C 95.601562 -97.78125 125.183594 -136.707031 125.183594 -177.8125 C 125.183594 -198.675781 112.726562 -210.820312 92.175781 -210.820312 C 28.960938 -210.820312 0.3125 -128.296875 0.3125 -75.980469 C 0.3125 -46.710938 17.128906 0.933594 52.316406 -0.621094 C 116.464844 -3.738281 160.0625 -95.910156 170.648438 -130.476562 Z M 98.714844 -188.710938 C 106.5 -188.710938 110.238281 -183.417969 110.238281 -175.941406 C 110.238281 -142.933594 81.585938 -113.351562 48.890625 -113.351562 C 46.710938 -113.351562 44.84375 -113.351562 42.664062 -113.660156 C 48.265625 -137.328125 66.328125 -188.710938 98.714844 -188.710938 Z M 98.714844 -188.710938 "/></g></g></g><g clip-path="url(#e4389bbe57)"><path fill="#ffffff" d="M 1140.226562 709.050781 L 1140.226562 711.070312 L 108.492188 714.78125 L 103.804688 714.78125 L 103.804688 710.09375 L 102.371094 396.257812 L 47.886719 396.519531 L 29.007812 396.582031 L 44.046875 384.996094 L 329.109375 164.898438 L 333.925781 161.191406 L 338.871094 164.898438 L 625.890625 382.328125 L 648.671875 399.578125 C 633.441406 399.644531 592.558594 399.839844 569.449219 399.902344 L 569.578125 470.730469 L 549.398438 470.730469 L 549.527344 389.941406 L 549.527344 379.917969 L 559.488281 379.984375 L 591.515625 380.113281 L 333.925781 181.433594 L 66.894531 383.757812 L 108.492188 383.953125 L 114.675781 383.953125 L 114.675781 390.074219 L 113.179688 705.40625 Z M 1140.226562 709.050781 " fill-opacity="1" fill-rule="nonzero"/></g><g fill="#ffffff" fill-opacity="1"><g transform="translate(786.396561, 435.770848)"><g><path d="M 43.640625 1.75 C 32.679688 1.75 24.101562 -2.0625 17.90625 -9.6875 C 11.71875 -17.320312 8.625 -29.445312 8.625 -46.0625 C 8.625 -68.769531 13.648438 -83.492188 23.703125 -90.234375 C 26.929688 -92.390625 30.296875 -93.867188 33.796875 -94.671875 C 37.304688 -95.484375 42.492188 -95.890625 49.359375 -95.890625 C 56.222656 -95.890625 63.335938 -94.988281 70.703125 -93.1875 L 68.953125 -80 C 60.515625 -81.25 52.722656 -81.875 45.578125 -81.875 C 38.441406 -81.875 33.890625 -80.84375 31.921875 -78.78125 C 27.515625 -74.207031 25.3125 -63.164062 25.3125 -45.65625 C 25.3125 -37.488281 26.070312 -30.6875 27.59375 -25.25 C 29.125 -19.820312 30.945312 -16.1875 33.0625 -14.34375 C 35.175781 -12.5 38.273438 -11.578125 42.359375 -11.578125 C 46.441406 -11.578125 50.726562 -12.207031 55.21875 -13.46875 C 59.707031 -14.726562 64.554688 -16.566406 69.765625 -18.984375 L 74.609375 -7 C 73.617188 -6.375 72.25 -5.566406 70.5 -4.578125 C 68.75 -3.585938 65.179688 -2.285156 59.796875 -0.671875 C 54.410156 0.941406 49.023438 1.75 43.640625 1.75 Z M 43.640625 1.75 "/></g></g></g><g fill="#ffffff" fill-opacity="1"><g transform="translate(867.732694, 435.770848)"><g><path d="M 29.09375 1.75 C 22.175781 1.75 16.628906 -0.425781 12.453125 -4.78125 C 8.273438 -9.132812 6.1875 -15.640625 6.1875 -24.296875 C 6.1875 -32.960938 8.992188 -39.269531 14.609375 -43.21875 C 20.222656 -47.175781 28.328125 -49.15625 38.921875 -49.15625 L 51.84375 -49.015625 C 51.84375 -57.722656 51.144531 -63 49.75 -64.84375 C 48.363281 -66.6875 45.648438 -67.609375 41.609375 -67.609375 C 37.566406 -67.609375 33.054688 -67.113281 28.078125 -66.125 C 23.097656 -65.132812 17.820312 -63.609375 12.25 -61.546875 L 8.078125 -72.984375 C 9.335938 -73.523438 11.019531 -74.222656 13.125 -75.078125 C 15.238281 -75.929688 19.164062 -77.050781 24.90625 -78.4375 C 30.65625 -79.832031 35.910156 -80.53125 40.671875 -80.53125 C 58.535156 -80.53125 67.46875 -70.832031 67.46875 -51.4375 L 67.46875 0 L 57.5 0 L 55.34375 -8.484375 L 54.671875 -8.484375 C 53.691406 -7.671875 52.367188 -6.703125 50.703125 -5.578125 C 49.046875 -4.460938 45.945312 -2.960938 41.40625 -1.078125 C 36.875 0.804688 32.769531 1.75 29.09375 1.75 Z M 51.84375 -36.359375 C 48.164062 -36.898438 43.179688 -37.171875 36.890625 -37.171875 C 30.609375 -37.171875 26.707031 -36.40625 25.1875 -34.875 C 23.207031 -33.082031 22.21875 -29.648438 22.21875 -24.578125 C 22.21875 -19.503906 22.867188 -16.046875 24.171875 -14.203125 C 25.472656 -12.367188 27.582031 -11.453125 30.5 -11.453125 C 33.414062 -11.453125 36.644531 -11.96875 40.1875 -13 C 43.738281 -14.03125 47.625 -15.53125 51.84375 -17.5 Z M 51.84375 -36.359375 "/></g></g></g><g fill="#ffffff" fill-opacity="1"><g transform="translate(946.914216, 435.770848)"><g><path d="M 36.359375 -11.171875 C 39.859375 -11.171875 42.503906 -11.976562 44.296875 -13.59375 C 46.097656 -15.21875 47 -17.820312 47 -21.40625 C 47 -25 45.832031 -27.582031 43.5 -29.15625 C 41.164062 -30.726562 38.425781 -31.984375 35.28125 -32.921875 C 32.144531 -33.867188 30.394531 -34.410156 30.03125 -34.546875 C 29.675781 -34.679688 28.644531 -35.015625 26.9375 -35.546875 C 25.226562 -36.085938 23.609375 -36.628906 22.078125 -37.171875 C 20.554688 -37.710938 18.601562 -38.609375 16.21875 -39.859375 C 13.84375 -41.117188 12.117188 -42.46875 11.046875 -43.90625 C 8.078125 -47.5 6.59375 -51.988281 6.59375 -57.375 C 6.59375 -64.46875 8.859375 -70.097656 13.390625 -74.265625 C 17.929688 -78.441406 24.53125 -80.53125 33.1875 -80.53125 C 41.851562 -80.53125 50.363281 -79.09375 58.71875 -76.21875 L 56.296875 -63.828125 C 46.953125 -66.078125 39.472656 -67.203125 33.859375 -67.203125 C 28.253906 -67.203125 24.800781 -66.457031 23.5 -64.96875 C 22.195312 -63.488281 21.546875 -61.398438 21.546875 -58.703125 C 21.546875 -56.015625 22.820312 -53.835938 25.375 -52.171875 C 27.9375 -50.515625 31.570312 -48.988281 36.28125 -47.59375 C 41 -46.207031 43.851562 -45.359375 44.84375 -45.046875 C 45.832031 -44.734375 47.359375 -44.191406 49.421875 -43.421875 C 51.484375 -42.660156 52.941406 -41.96875 53.796875 -41.34375 C 54.648438 -40.71875 55.75 -39.84375 57.09375 -38.71875 C 58.445312 -37.59375 59.4375 -36.359375 60.0625 -35.015625 C 61.5 -31.785156 62.21875 -28.191406 62.21875 -24.234375 C 62.21875 -16.335938 59.859375 -10.03125 55.140625 -5.3125 C 50.429688 -0.601562 43.769531 1.75 35.15625 1.75 C 30.84375 1.75 26.285156 1.164062 21.484375 0 C 16.679688 -1.164062 11.628906 -2.914062 6.328125 -5.25 L 10.09375 -17.90625 C 20.601562 -13.414062 29.359375 -11.171875 36.359375 -11.171875 Z M 36.359375 -11.171875 "/></g></g></g><g fill="#ffffff" fill-opacity="1"><g transform="translate(1015.861398, 435.770848)"><g><path d="M 29.09375 1.75 C 22.175781 1.75 16.628906 -0.425781 12.453125 -4.78125 C 8.273438 -9.132812 6.1875 -15.640625 6.1875 -24.296875 C 6.1875 -32.960938 8.992188 -39.269531 14.609375 -43.21875 C 20.222656 -47.175781 28.328125 -49.15625 38.921875 -49.15625 L 51.84375 -49.015625 C 51.84375 -57.722656 51.144531 -63 49.75 -64.84375 C 48.363281 -66.6875 45.648438 -67.609375 41.609375 -67.609375 C 37.566406 -67.609375 33.054688 -67.113281 28.078125 -66.125 C 23.097656 -65.132812 17.820312 -63.609375 12.25 -61.546875 L 8.078125 -72.984375 C 9.335938 -73.523438 11.019531 -74.222656 13.125 -75.078125 C 15.238281 -75.929688 19.164062 -77.050781 24.90625 -78.4375 C 30.65625 -79.832031 35.910156 -80.53125 40.671875 -80.53125 C 58.535156 -80.53125 67.46875 -70.832031 67.46875 -51.4375 L 67.46875 0 L 57.5 0 L 55.34375 -8.484375 L 54.671875 -8.484375 C 53.691406 -7.671875 52.367188 -6.703125 50.703125 -5.578125 C 49.046875 -4.460938 45.945312 -2.960938 41.40625 -1.078125 C 36.875 0.804688 32.769531 1.75 29.09375 1.75 Z M 51.84375 -36.359375 C 48.164062 -36.898438 43.179688 -37.171875 36.890625 -37.171875 C 30.609375 -37.171875 26.707031 -36.40625 25.1875 -34.875 C 23.207031 -33.082031 22.21875 -29.648438 22.21875 -24.578125 C 22.21875 -19.503906 22.867188 -16.046875 24.171875 -14.203125 C 25.472656 -12.367188 27.582031 -11.453125 30.5 -11.453125 C 33.414062 -11.453125 36.644531 -11.96875 40.1875 -13 C 43.738281 -14.03125 47.625 -15.53125 51.84375 -17.5 Z M 51.84375 -36.359375 "/></g></g></g><g fill="#ffffff" fill-opacity="1"><g transform="translate(1095.048552, 435.770848)"><g/></g></g><g fill="#ffffff" fill-opacity="1"><g transform="translate(1126.694232, 435.770848)"><g/></g></g><g fill="#ffffff" fill-opacity="1"><g transform="translate(1148.314496, 721.976297)"><g><path d="M 34.1875 -46.125 C 34.738281 -46 34.90625 -45.6875 34.6875 -45.1875 C 31.207031 -38.945312 28.164062 -32.503906 25.5625 -25.859375 C 22.957031 -19.222656 20.59375 -12.472656 18.46875 -5.609375 C 17.113281 -1.117188 15.847656 3.398438 14.671875 7.953125 C 14.378906 9.046875 14.09375 10.148438 13.8125 11.265625 C 13.613281 11.953125 13.410156 12.628906 13.203125 13.296875 C 13.160156 13.535156 13.09375 13.769531 13 14 C 12.726562 14.863281 12.128906 15.257812 11.203125 15.1875 C 10.484375 15.15625 9.984375 14.820312 9.703125 14.1875 C 9.410156 13.476562 9.1875 12.769531 9.03125 12.0625 C 8.457031 9.425781 7.914062 6.785156 7.40625 4.140625 C 6.144531 -2.597656 4.90625 -9.335938 3.6875 -16.078125 C 3.300781 -18.242188 2.921875 -20.410156 2.546875 -22.578125 C 2.148438 -24.878906 1.742188 -27.1875 1.328125 -29.5 C 0.972656 -31.34375 0.613281 -33.171875 0.25 -34.984375 C 0.0703125 -35.867188 -0.101562 -36.734375 -0.28125 -37.578125 C -0.332031 -37.734375 -0.367188 -37.898438 -0.390625 -38.078125 C -0.390625 -38.140625 -0.40625 -38.210938 -0.4375 -38.296875 C -0.4375 -38.296875 -0.445312 -38.296875 -0.46875 -38.296875 C -0.488281 -38.453125 -0.5 -38.601562 -0.5 -38.75 C -0.550781 -39.082031 -0.597656 -39.421875 -0.640625 -39.765625 C -0.628906 -40.191406 -0.410156 -40.429688 0.015625 -40.484375 C 0.921875 -40.640625 1.488281 -40.257812 1.71875 -39.34375 C 1.71875 -39.320312 1.71875 -39.300781 1.71875 -39.28125 C 2.195312 -37.5 2.617188 -35.707031 2.984375 -33.90625 C 3.640625 -30.40625 4.285156 -26.921875 4.921875 -23.453125 C 4.941406 -23.328125 4.972656 -23.195312 5.015625 -23.0625 C 5.609375 -19.675781 6.21875 -16.300781 6.84375 -12.9375 C 7.125 -11.28125 7.414062 -9.628906 7.71875 -7.984375 C 7.820312 -7.378906 7.925781 -6.789062 8.03125 -6.21875 C 8.363281 -4.46875 8.679688 -2.722656 8.984375 -0.984375 C 9.484375 1.660156 9.988281 4.316406 10.5 6.984375 C 10.65625 7.804688 10.8125 8.632812 10.96875 9.46875 C 10.976562 9.53125 10.992188 9.59375 11.015625 9.65625 C 11.015625 9.726562 11.023438 9.789062 11.046875 9.84375 C 11.085938 10.019531 11.179688 10.09375 11.328125 10.0625 C 11.390625 10.039062 11.445312 10.015625 11.5 9.984375 C 11.550781 9.960938 11.582031 9.9375 11.59375 9.90625 C 11.78125 9.3125 11.945312 8.726562 12.09375 8.15625 C 14.851562 -2.769531 18.238281 -13.460938 22.25 -23.921875 C 23.632812 -27.523438 25.160156 -31.050781 26.828125 -34.5 C 28.492188 -37.957031 30.273438 -41.363281 32.171875 -44.71875 C 32.328125 -45.03125 32.515625 -45.328125 32.734375 -45.609375 C 33.097656 -46.078125 33.582031 -46.25 34.1875 -46.125 Z M 34.1875 -46.125 "/></g></g></g><g fill="#ffffff" fill-opacity="1"><g transform="translate(1173.331035, 721.235808)"><g><path d="M 7.359375 -6.109375 C 7.078125 -5.484375 6.585938 -4.78125 5.890625 -4 C 5.191406 -3.226562 4.382812 -2.726562 3.46875 -2.5 C 2.5625 -2.269531 1.679688 -2.5625 0.828125 -3.375 C 0.503906 -3.726562 0.257812 -4.140625 0.09375 -4.609375 C -0.0703125 -5.085938 -0.140625 -5.554688 -0.109375 -6.015625 C -0.117188 -6.140625 -0.125 -6.300781 -0.125 -6.5 C -0.144531 -6.988281 -0.140625 -7.554688 -0.109375 -8.203125 C -0.0859375 -8.859375 -0.0078125 -9.445312 0.125 -9.96875 C 0.257812 -10.5 0.484375 -10.820312 0.796875 -10.9375 C 1.710938 -11.207031 2.21875 -10.90625 2.3125 -10.03125 C 2.320312 -9.75 2.320312 -9.46875 2.3125 -9.1875 C 2.289062 -9.039062 2.285156 -8.90625 2.296875 -8.78125 C 2.296875 -8.375 2.289062 -7.96875 2.28125 -7.5625 C 2.289062 -7.25 2.285156 -6.929688 2.265625 -6.609375 C 2.285156 -5.203125 2.625 -4.375 3.28125 -4.125 C 3.9375 -3.875 4.664062 -4.175781 5.46875 -5.03125 C 6.269531 -5.894531 6.789062 -6.601562 7.03125 -7.15625 C 7.28125 -7.71875 7.46875 -7.835938 7.59375 -7.515625 C 7.71875 -7.203125 7.640625 -6.734375 7.359375 -6.109375 Z M 2.015625 -13.984375 C 1.890625 -13.859375 1.738281 -13.78125 1.5625 -13.75 C 1.382812 -13.71875 1.226562 -13.726562 1.09375 -13.78125 C 0.976562 -13.875 0.90625 -13.988281 0.875 -14.125 C 0.84375 -14.257812 0.820312 -14.421875 0.8125 -14.609375 C 0.8125 -14.648438 0.820312 -14.691406 0.84375 -14.734375 C 0.863281 -14.910156 0.898438 -15.085938 0.953125 -15.265625 C 1.140625 -15.734375 1.535156 -15.957031 2.140625 -15.9375 C 2.359375 -15.914062 2.53125 -15.832031 2.65625 -15.6875 C 2.78125 -15.539062 2.804688 -15.375 2.734375 -15.1875 C 2.609375 -14.707031 2.367188 -14.304688 2.015625 -13.984375 Z M 2.015625 -13.984375 "/></g></g></g><g fill="#ffffff" fill-opacity="1"><g transform="translate(1180.451684, 721.025037)"><g><path d="M 13.78125 -7.421875 C 13.988281 -7.554688 14.191406 -7.660156 14.390625 -7.734375 C 14.597656 -7.804688 14.734375 -7.804688 14.796875 -7.734375 C 14.859375 -7.660156 14.773438 -7.484375 14.546875 -7.203125 C 13.859375 -6.347656 13.015625 -5.554688 12.015625 -4.828125 C 11.023438 -4.109375 10.007812 -3.5 8.96875 -3 C 8.144531 -2.59375 7.269531 -2.265625 6.34375 -2.015625 C 5.425781 -1.765625 4.515625 -1.6875 3.609375 -1.78125 C 2.703125 -1.882812 1.867188 -2.265625 1.109375 -2.921875 C -0.0546875 -3.929688 -0.566406 -5.195312 -0.421875 -6.71875 C -0.285156 -7.914062 0.148438 -8.941406 0.890625 -9.796875 C 1.640625 -10.660156 2.59375 -11.265625 3.75 -11.609375 C 4.726562 -11.847656 5.703125 -11.894531 6.671875 -11.75 C 7.117188 -11.707031 7.535156 -11.570312 7.921875 -11.34375 C 8.265625 -11.09375 8.457031 -10.796875 8.5 -10.453125 C 8.550781 -10.109375 8.429688 -9.769531 8.140625 -9.4375 C 7.523438 -8.863281 6.8125 -8.515625 6 -8.390625 C 5.101562 -8.203125 4.195312 -8.078125 3.28125 -8.015625 C 2.832031 -7.992188 2.519531 -7.890625 2.34375 -7.703125 C 2.175781 -7.515625 2.082031 -7.195312 2.0625 -6.75 C 1.957031 -5.539062 2.375 -4.566406 3.3125 -3.828125 C 3.894531 -3.390625 4.59375 -3.21875 5.40625 -3.3125 C 6.226562 -3.40625 7.09375 -3.648438 8 -4.046875 C 8.90625 -4.453125 9.789062 -4.914062 10.65625 -5.4375 C 11.519531 -5.957031 12.300781 -6.453125 13 -6.921875 C 13.289062 -7.117188 13.550781 -7.285156 13.78125 -7.421875 Z M 3.625 -9.703125 C 3.625 -9.679688 3.609375 -9.671875 3.578125 -9.671875 C 3.535156 -9.628906 3.484375 -9.582031 3.421875 -9.53125 C 3.359375 -9.476562 3.300781 -9.425781 3.25 -9.375 C 3.207031 -9.320312 3.1875 -9.285156 3.1875 -9.265625 C 3.207031 -9.203125 3.378906 -9.1875 3.703125 -9.21875 C 4.035156 -9.257812 4.394531 -9.328125 4.78125 -9.421875 C 5.175781 -9.523438 5.503906 -9.648438 5.765625 -9.796875 C 6.023438 -9.941406 6.101562 -10.109375 6 -10.296875 C 5.945312 -10.359375 5.878906 -10.40625 5.796875 -10.4375 C 5.722656 -10.476562 5.644531 -10.507812 5.5625 -10.53125 C 5.175781 -10.519531 4.828125 -10.429688 4.515625 -10.265625 C 4.203125 -10.109375 3.90625 -9.921875 3.625 -9.703125 Z M 3.625 -9.703125 "/></g></g></g><g fill="#ffffff" fill-opacity="1"><g transform="translate(1194.489951, 720.609504)"><g><path d="M 7.359375 -6.109375 C 7.078125 -5.484375 6.585938 -4.78125 5.890625 -4 C 5.191406 -3.226562 4.382812 -2.726562 3.46875 -2.5 C 2.5625 -2.269531 1.679688 -2.5625 0.828125 -3.375 C 0.503906 -3.726562 0.257812 -4.140625 0.09375 -4.609375 C -0.0703125 -5.085938 -0.140625 -5.554688 -0.109375 -6.015625 C -0.117188 -6.140625 -0.125 -6.300781 -0.125 -6.5 C -0.144531 -6.988281 -0.140625 -7.554688 -0.109375 -8.203125 C -0.0859375 -8.859375 -0.0078125 -9.445312 0.125 -9.96875 C 0.257812 -10.5 0.484375 -10.820312 0.796875 -10.9375 C 1.710938 -11.207031 2.21875 -10.90625 2.3125 -10.03125 C 2.320312 -9.75 2.320312 -9.46875 2.3125 -9.1875 C 2.289062 -9.039062 2.285156 -8.90625 2.296875 -8.78125 C 2.296875 -8.375 2.289062 -7.96875 2.28125 -7.5625 C 2.289062 -7.25 2.285156 -6.929688 2.265625 -6.609375 C 2.285156 -5.203125 2.625 -4.375 3.28125 -4.125 C 3.9375 -3.875 4.664062 -4.175781 5.46875 -5.03125 C 6.269531 -5.894531 6.789062 -6.601562 7.03125 -7.15625 C 7.28125 -7.71875 7.46875 -7.835938 7.59375 -7.515625 C 7.71875 -7.203125 7.640625 -6.734375 7.359375 -6.109375 Z M 2.015625 -13.984375 C 1.890625 -13.859375 1.738281 -13.78125 1.5625 -13.75 C 1.382812 -13.71875 1.226562 -13.726562 1.09375 -13.78125 C 0.976562 -13.875 0.90625 -13.988281 0.875 -14.125 C 0.84375 -14.257812 0.820312 -14.421875 0.8125 -14.609375 C 0.8125 -14.648438 0.820312 -14.691406 0.84375 -14.734375 C 0.863281 -14.910156 0.898438 -15.085938 0.953125 -15.265625 C 1.140625 -15.734375 1.535156 -15.957031 2.140625 -15.9375 C 2.359375 -15.914062 2.53125 -15.832031 2.65625 -15.6875 C 2.78125 -15.539062 2.804688 -15.375 2.734375 -15.1875 C 2.609375 -14.707031 2.367188 -14.304688 2.015625 -13.984375 Z M 2.015625 -13.984375 "/></g></g></g><g fill="#ffffff" fill-opacity="1"><g transform="translate(1201.6106, 720.398733)"><g><path d="M 9.0625 -7.234375 C 9.226562 -7.609375 9.34375 -7.78125 9.40625 -7.75 C 9.476562 -7.726562 9.5 -7.578125 9.46875 -7.296875 C 9.445312 -7.023438 9.394531 -6.710938 9.3125 -6.359375 C 9.207031 -5.828125 9.007812 -5.203125 8.71875 -4.484375 C 8.4375 -3.773438 8.117188 -3.132812 7.765625 -2.5625 C 7.222656 -1.738281 6.539062 -1.113281 5.71875 -0.6875 C 4.90625 -0.269531 4.160156 -0.148438 3.484375 -0.328125 C 2.804688 -0.515625 2.398438 -1.140625 2.265625 -2.203125 C 2.210938 -3.085938 2.253906 -4.066406 2.390625 -5.140625 C 2.441406 -5.585938 2.5 -6.023438 2.5625 -6.453125 C 2.550781 -6.609375 2.503906 -6.722656 2.421875 -6.796875 C 2.347656 -6.878906 2.25 -6.90625 2.125 -6.875 C 2.03125 -6.875 1.929688 -6.875 1.828125 -6.875 C 1.296875 -6.769531 0.753906 -6.765625 0.203125 -6.859375 C -0.460938 -7.035156 -0.851562 -7.347656 -0.96875 -7.796875 C -1.09375 -8.253906 -1.101562 -8.863281 -1 -9.625 C -0.945312 -10.15625 -0.757812 -10.554688 -0.4375 -10.828125 C -0.113281 -11.109375 0.269531 -11.226562 0.71875 -11.1875 C 1.332031 -11.15625 1.632812 -10.929688 1.625 -10.515625 C 1.625 -10.097656 1.523438 -9.644531 1.328125 -9.15625 C 1.148438 -8.75 1.054688 -8.410156 1.046875 -8.140625 C 1.046875 -7.878906 1.273438 -7.800781 1.734375 -7.90625 C 1.847656 -7.925781 1.96875 -7.957031 2.09375 -8 C 2.257812 -8.082031 2.453125 -8.148438 2.671875 -8.203125 C 2.890625 -8.265625 3.179688 -8.285156 3.546875 -8.265625 C 3.972656 -8.253906 4.257812 -8.066406 4.40625 -7.703125 C 4.5625 -7.335938 4.632812 -6.875 4.625 -6.3125 C 4.625 -5.75 4.59375 -5.175781 4.53125 -4.59375 C 4.445312 -3.863281 4.410156 -3.238281 4.421875 -2.71875 C 4.441406 -2.207031 4.601562 -1.910156 4.90625 -1.828125 C 5.300781 -1.742188 5.878906 -2.125 6.640625 -2.96875 C 7.398438 -3.8125 8.207031 -5.234375 9.0625 -7.234375 Z M 9.0625 -7.234375 "/></g></g></g><g fill="#ffffff" fill-opacity="1"><g transform="translate(1210.486033, 720.13602)"><g><path d="M 16.1875 -7.9375 C 15.945312 -7.113281 15.445312 -6.164062 14.6875 -5.09375 C 13.9375 -4.03125 12.972656 -3.328125 11.796875 -2.984375 C 10.628906 -2.648438 9.609375 -2.660156 8.734375 -3.015625 C 7.867188 -3.378906 7.367188 -4.390625 7.234375 -6.046875 C 6.304688 -4.117188 5.40625 -2.875 4.53125 -2.3125 C 3.664062 -1.757812 2.753906 -1.53125 1.796875 -1.625 C 0.710938 -1.769531 -0.0234375 -2.171875 -0.421875 -2.828125 C -0.828125 -3.484375 -0.976562 -4.25 -0.875 -5.125 C -0.78125 -6.007812 -0.546875 -6.859375 -0.171875 -7.671875 C 0.128906 -8.285156 0.554688 -8.851562 1.109375 -9.375 C 1.660156 -9.90625 2.238281 -10.328125 2.84375 -10.640625 C 3.601562 -11.046875 4.367188 -11.253906 5.140625 -11.265625 C 5.910156 -11.273438 6.742188 -11.039062 7.640625 -10.5625 C 7.671875 -10.539062 7.679688 -10.5625 7.671875 -10.625 C 7.671875 -10.707031 7.6875 -10.8125 7.71875 -10.9375 C 7.757812 -11.070312 7.832031 -11.1875 7.9375 -11.28125 C 8.226562 -11.488281 8.570312 -11.597656 8.96875 -11.609375 C 9.363281 -11.628906 9.675781 -11.441406 9.90625 -11.046875 C 9.957031 -10.535156 9.921875 -9.882812 9.796875 -9.09375 C 9.523438 -7.34375 9.5625 -6.085938 9.90625 -5.328125 C 10.25 -4.578125 10.820312 -4.238281 11.625 -4.3125 C 12.425781 -4.394531 13.445312 -5.222656 14.6875 -6.796875 C 15.9375 -8.378906 16.4375 -8.757812 16.1875 -7.9375 Z M 2.046875 -3.421875 C 2.492188 -3.117188 3 -3.179688 3.5625 -3.609375 C 4.125 -4.035156 4.660156 -4.628906 5.171875 -5.390625 C 5.679688 -6.148438 6.109375 -6.90625 6.453125 -7.65625 C 6.796875 -8.414062 6.976562 -8.972656 7 -9.328125 C 5.894531 -9.878906 4.960938 -9.953125 4.203125 -9.546875 C 3.441406 -9.140625 2.84375 -8.492188 2.40625 -7.609375 C 1.96875 -6.734375 1.71875 -5.882812 1.65625 -5.0625 C 1.601562 -4.238281 1.734375 -3.691406 2.046875 -3.421875 Z M 2.046875 -3.421875 "/></g></g></g><g fill="#ffffff" fill-opacity="1"><g transform="translate(1225.858514, 719.680995)"><g/></g></g><g fill="#ffffff" fill-opacity="1"><g transform="translate(1233.225704, 719.462926)"><g><path d="M 55.15625 -42.859375 C 56.59375 -41.753906 57.78125 -40.476562 58.71875 -39.03125 C 59.65625 -37.59375 60.300781 -35.960938 60.65625 -34.140625 C 60.832031 -33.203125 60.890625 -32.273438 60.828125 -31.359375 C 60.773438 -30.453125 60.644531 -29.539062 60.4375 -28.625 C 60.113281 -27.125 59.625 -25.691406 58.96875 -24.328125 C 58.320312 -22.972656 57.550781 -21.675781 56.65625 -20.4375 C 55.46875 -18.832031 54.128906 -17.390625 52.640625 -16.109375 C 51.160156 -14.835938 49.578125 -13.671875 47.890625 -12.609375 C 44.316406 -10.378906 40.546875 -8.539062 36.578125 -7.09375 C 36.304688 -6.96875 36.023438 -6.847656 35.734375 -6.734375 C 35.335938 -6.597656 35.050781 -6.476562 34.875 -6.375 C 34.707031 -6.269531 34.601562 -6.117188 34.5625 -5.921875 C 34.53125 -5.734375 34.519531 -5.4375 34.53125 -5.03125 C 34.6875 0.0078125 34.828125 5.039062 34.953125 10.0625 C 34.972656 10.71875 34.992188 11.363281 35.015625 12 C 35.015625 12.050781 35.015625 12.082031 35.015625 12.09375 C 35.023438 12.457031 35.03125 12.816406 35.03125 13.171875 C 35.03125 13.523438 34.984375 13.875 34.890625 14.21875 C 34.753906 14.800781 34.40625 15.085938 33.84375 15.078125 C 33.363281 15.066406 33.039062 14.835938 32.875 14.390625 C 32.65625 13.617188 32.550781 12.828125 32.5625 12.015625 C 32.53125 11.253906 32.503906 10.492188 32.484375 9.734375 C 32.359375 5.421875 32.234375 1.117188 32.109375 -3.171875 C 32.097656 -3.328125 32.09375 -3.488281 32.09375 -3.65625 C 32.125 -4.164062 32.054688 -4.722656 31.890625 -5.328125 C 31.585938 -5.285156 31.320312 -5.21875 31.09375 -5.125 C 30.695312 -5.007812 30.320312 -4.976562 29.96875 -5.03125 C 29.832031 -5.050781 29.710938 -5.082031 29.609375 -5.125 C 29.503906 -5.175781 29.4375 -5.28125 29.40625 -5.4375 C 29.40625 -5.726562 29.53125 -5.921875 29.78125 -6.015625 C 30.28125 -6.234375 30.789062 -6.429688 31.3125 -6.609375 C 31.789062 -6.785156 32.007812 -7.117188 31.96875 -7.609375 C 31.96875 -7.910156 31.960938 -8.222656 31.953125 -8.546875 C 31.941406 -8.710938 31.9375 -8.890625 31.9375 -9.078125 C 31.851562 -11.648438 31.773438 -14.210938 31.703125 -16.765625 C 31.554688 -22.460938 31.398438 -28.175781 31.234375 -33.90625 C 31.222656 -33.96875 31.21875 -34.039062 31.21875 -34.125 C 31.207031 -34.550781 31.207031 -34.96875 31.21875 -35.375 C 31.257812 -36.113281 31.65625 -36.492188 32.40625 -36.515625 C 33.113281 -36.515625 33.515625 -36.148438 33.609375 -35.421875 C 33.640625 -35.054688 33.648438 -34.691406 33.640625 -34.328125 C 33.640625 -34.203125 33.644531 -34.078125 33.65625 -33.953125 C 33.707031 -32.160156 33.757812 -30.378906 33.8125 -28.609375 C 34.007812 -22.421875 34.203125 -16.238281 34.390625 -10.0625 C 34.390625 -9.90625 34.394531 -9.742188 34.40625 -9.578125 C 34.375 -9.066406 34.429688 -8.5625 34.578125 -8.0625 C 34.703125 -7.957031 34.820312 -7.921875 34.9375 -7.953125 C 35.050781 -7.984375 35.164062 -8.019531 35.28125 -8.0625 C 38.226562 -9.257812 41.046875 -10.660156 43.734375 -12.265625 C 46.421875 -13.878906 48.925781 -15.765625 51.25 -17.921875 C 54.238281 -20.710938 56.316406 -24.09375 57.484375 -28.0625 C 58.078125 -30.25 58.203125 -32.269531 57.859375 -34.125 C 57.515625 -35.988281 56.804688 -37.644531 55.734375 -39.09375 C 54.660156 -40.539062 53.320312 -41.757812 51.71875 -42.75 C 48.945312 -44.457031 45.675781 -45.46875 41.90625 -45.78125 C 38.132812 -46.09375 34.195312 -45.835938 30.09375 -45.015625 C 26 -44.191406 22.0625 -42.9375 18.28125 -41.25 C 14.5 -39.5625 11.203125 -37.566406 8.390625 -35.265625 C 5.578125 -32.972656 3.554688 -30.519531 2.328125 -27.90625 C 2.054688 -27.382812 1.863281 -26.84375 1.75 -26.28125 C 1.644531 -25.71875 1.671875 -25.140625 1.828125 -24.546875 C 1.929688 -24.191406 1.894531 -23.925781 1.71875 -23.75 C 1.539062 -23.582031 1.273438 -23.515625 0.921875 -23.546875 C 0.242188 -23.640625 -0.234375 -23.984375 -0.515625 -24.578125 C -0.742188 -25.109375 -0.796875 -25.65625 -0.671875 -26.21875 C -0.472656 -27.332031 -0.0664062 -28.359375 0.546875 -29.296875 C 2.515625 -32.359375 5.300781 -35.109375 8.90625 -37.546875 C 12.507812 -39.984375 16.519531 -42.015625 20.9375 -43.640625 C 25.351562 -45.265625 29.789062 -46.359375 34.25 -46.921875 C 38.707031 -47.484375 42.765625 -47.410156 46.421875 -46.703125 C 48.023438 -46.398438 49.550781 -45.929688 51 -45.296875 C 52.457031 -44.671875 53.84375 -43.859375 55.15625 -42.859375 Z M 55.15625 -42.859375 "/></g></g></g><g fill="#ffffff" fill-opacity="1"><g transform="translate(1287.145401, 717.866904)"><g><path d="M 10.90625 -8.265625 C 11.050781 -8.421875 11.132812 -8.25 11.15625 -7.75 C 11.175781 -7.25 10.742188 -6.535156 9.859375 -5.609375 C 8.972656 -4.679688 8.039062 -4.234375 7.0625 -4.265625 C 6.84375 -4.273438 6.660156 -4.25 6.515625 -4.1875 C 6.367188 -4.132812 6.242188 -4.007812 6.140625 -3.8125 C 6.046875 -3.632812 5.925781 -3.472656 5.78125 -3.328125 C 5.78125 -3.328125 5.769531 -3.316406 5.75 -3.296875 C 5.175781 -2.628906 4.488281 -2.179688 3.6875 -1.953125 C 2.882812 -1.734375 2.113281 -1.78125 1.375 -2.09375 C 0.632812 -2.40625 0.0976562 -3.015625 -0.234375 -3.921875 C -0.503906 -4.742188 -0.550781 -5.570312 -0.375 -6.40625 C -0.226562 -7.125 0.015625 -7.8125 0.359375 -8.46875 C 0.785156 -9.320312 1.347656 -9.9375 2.046875 -10.3125 C 2.742188 -10.6875 3.539062 -10.910156 4.4375 -10.984375 C 5.769531 -11.085938 6.628906 -10.484375 7.015625 -9.171875 C 7.253906 -8.410156 7.328125 -7.632812 7.234375 -6.84375 C 7.222656 -6.675781 7.195312 -6.492188 7.15625 -6.296875 C 7.125 -6.171875 7.09375 -6.046875 7.0625 -5.921875 C 7.039062 -5.492188 7.234375 -5.304688 7.640625 -5.359375 C 8.753906 -5.578125 9.84375 -6.546875 10.90625 -8.265625 Z M 3.15625 -3.078125 C 3.832031 -3.421875 4.296875 -3.976562 4.546875 -4.75 C 3.378906 -5.445312 2.582031 -6.472656 2.15625 -7.828125 C 1.820312 -7.179688 1.628906 -6.425781 1.578125 -5.5625 C 1.523438 -4.707031 1.628906 -4.003906 1.890625 -3.453125 C 2.148438 -2.898438 2.570312 -2.773438 3.15625 -3.078125 Z M 5.015625 -6.28125 C 5.203125 -6.550781 5.304688 -6.882812 5.328125 -7.28125 C 5.347656 -7.6875 5.316406 -8.082031 5.234375 -8.46875 C 5.148438 -8.851562 5.039062 -9.15625 4.90625 -9.375 C 4.769531 -9.59375 4.628906 -9.660156 4.484375 -9.578125 C 4.234375 -9.328125 4.097656 -8.984375 4.078125 -8.546875 C 4.054688 -8.117188 4.132812 -7.6875 4.3125 -7.25 C 4.488281 -6.820312 4.722656 -6.5 5.015625 -6.28125 Z M 5.015625 -6.28125 "/></g></g></g><g fill="#ffffff" fill-opacity="1"><g transform="translate(1297.949638, 717.547099)"><g><path d="M 9.0625 -7.234375 C 9.226562 -7.609375 9.34375 -7.78125 9.40625 -7.75 C 9.476562 -7.726562 9.5 -7.578125 9.46875 -7.296875 C 9.445312 -7.023438 9.394531 -6.710938 9.3125 -6.359375 C 9.207031 -5.828125 9.007812 -5.203125 8.71875 -4.484375 C 8.4375 -3.773438 8.117188 -3.132812 7.765625 -2.5625 C 7.222656 -1.738281 6.539062 -1.113281 5.71875 -0.6875 C 4.90625 -0.269531 4.160156 -0.148438 3.484375 -0.328125 C 2.804688 -0.515625 2.398438 -1.140625 2.265625 -2.203125 C 2.210938 -3.085938 2.253906 -4.066406 2.390625 -5.140625 C 2.441406 -5.585938 2.5 -6.023438 2.5625 -6.453125 C 2.550781 -6.609375 2.503906 -6.722656 2.421875 -6.796875 C 2.347656 -6.878906 2.25 -6.90625 2.125 -6.875 C 2.03125 -6.875 1.929688 -6.875 1.828125 -6.875 C 1.296875 -6.769531 0.753906 -6.765625 0.203125 -6.859375 C -0.460938 -7.035156 -0.851562 -7.347656 -0.96875 -7.796875 C -1.09375 -8.253906 -1.101562 -8.863281 -1 -9.625 C -0.945312 -10.15625 -0.757812 -10.554688 -0.4375 -10.828125 C -0.113281 -11.109375 0.269531 -11.226562 0.71875 -11.1875 C 1.332031 -11.15625 1.632812 -10.929688 1.625 -10.515625 C 1.625 -10.097656 1.523438 -9.644531 1.328125 -9.15625 C 1.148438 -8.75 1.054688 -8.410156 1.046875 -8.140625 C 1.046875 -7.878906 1.273438 -7.800781 1.734375 -7.90625 C 1.847656 -7.925781 1.96875 -7.957031 2.09375 -8 C 2.257812 -8.082031 2.453125 -8.148438 2.671875 -8.203125 C 2.890625 -8.265625 3.179688 -8.285156 3.546875 -8.265625 C 3.972656 -8.253906 4.257812 -8.066406 4.40625 -7.703125 C 4.5625 -7.335938 4.632812 -6.875 4.625 -6.3125 C 4.625 -5.75 4.59375 -5.175781 4.53125 -4.59375 C 4.445312 -3.863281 4.410156 -3.238281 4.421875 -2.71875 C 4.441406 -2.207031 4.601562 -1.910156 4.90625 -1.828125 C 5.300781 -1.742188 5.878906 -2.125 6.640625 -2.96875 C 7.398438 -3.8125 8.207031 -5.234375 9.0625 -7.234375 Z M 9.0625 -7.234375 "/></g></g></g><g fill="#ffffff" fill-opacity="1"><g transform="translate(1306.825071, 717.284386)"><g><path d="M 10.453125 -7.296875 C 10.960938 -7.828125 11.1875 -7.960938 11.125 -7.703125 C 11.0625 -7.441406 10.78125 -6.96875 10.28125 -6.28125 C 9.789062 -5.59375 9.175781 -4.84375 8.4375 -4.03125 C 7.695312 -3.226562 6.90625 -2.523438 6.0625 -1.921875 C 5.226562 -1.328125 4.429688 -0.992188 3.671875 -0.921875 C 2.734375 -0.890625 1.972656 -1.144531 1.390625 -1.6875 C 0.804688 -2.226562 0.378906 -2.953125 0.109375 -3.859375 C -0.148438 -4.765625 -0.28125 -5.75 -0.28125 -6.8125 C -0.257812 -8.007812 -0.25 -9.203125 -0.25 -10.390625 C -0.238281 -10.992188 -0.238281 -11.578125 -0.25 -12.140625 C -0.226562 -13.097656 -0.21875 -14.054688 -0.21875 -15.015625 C -0.207031 -15.316406 -0.265625 -15.566406 -0.390625 -15.765625 C -0.515625 -15.972656 -0.726562 -16.082031 -1.03125 -16.09375 C -1.375 -16.101562 -1.800781 -16.101562 -2.3125 -16.09375 C -2.757812 -16.070312 -3.140625 -16.054688 -3.453125 -16.046875 C -3.898438 -16.078125 -4.203125 -16.1875 -4.359375 -16.375 C -4.515625 -16.5625 -4.398438 -16.753906 -4.015625 -16.953125 C -3.753906 -17.066406 -3.429688 -17.132812 -3.046875 -17.15625 C -2.660156 -17.175781 -2.285156 -17.179688 -1.921875 -17.171875 C -1.691406 -17.171875 -1.488281 -17.171875 -1.3125 -17.171875 C -0.738281 -17.191406 -0.390625 -17.289062 -0.265625 -17.46875 C -0.148438 -17.644531 -0.0820312 -18 -0.0625 -18.53125 C -0.0507812 -19.09375 -0.0390625 -19.660156 -0.03125 -20.234375 C -0.0195312 -20.523438 -0.00390625 -20.820312 0.015625 -21.125 C 0.00390625 -21.570312 0.109375 -21.976562 0.328125 -22.34375 C 0.566406 -22.695312 0.878906 -22.835938 1.265625 -22.765625 C 1.609375 -22.691406 1.804688 -22.484375 1.859375 -22.140625 C 1.898438 -21.585938 1.925781 -21.023438 1.9375 -20.453125 C 1.96875 -20.128906 1.976562 -19.8125 1.96875 -19.5 C 1.976562 -19.15625 2 -18.800781 2.03125 -18.4375 C 2.03125 -17.9375 2.097656 -17.625 2.234375 -17.5 C 2.367188 -17.375 2.707031 -17.316406 3.25 -17.328125 C 4.113281 -17.359375 4.972656 -17.382812 5.828125 -17.40625 C 6.210938 -17.414062 7.363281 -17.476562 9.28125 -17.59375 C 11.195312 -17.707031 12.234375 -17.582031 12.390625 -17.21875 C 12.554688 -16.863281 11.351562 -16.617188 8.78125 -16.484375 C 7.226562 -16.347656 6.023438 -16.269531 5.171875 -16.25 C 4.585938 -16.25 4.070312 -16.242188 3.625 -16.234375 C 2.851562 -16.210938 2.382812 -16.066406 2.21875 -15.796875 C 2.050781 -15.523438 1.988281 -14.988281 2.03125 -14.1875 C 2.03125 -13.5 2.019531 -12.660156 2 -11.671875 C 1.9375 -9.671875 1.9375 -7.628906 2 -5.546875 C 2.09375 -4.117188 2.375 -3.195312 2.84375 -2.78125 C 3.320312 -2.375 3.929688 -2.3125 4.671875 -2.59375 C 5.410156 -2.882812 6.203125 -3.382812 7.046875 -4.09375 C 7.890625 -4.800781 8.722656 -5.554688 9.546875 -6.359375 C 9.734375 -6.609375 9.953125 -6.847656 10.203125 -7.078125 C 10.285156 -7.148438 10.367188 -7.222656 10.453125 -7.296875 Z M 10.453125 -7.296875 "/></g></g></g><g fill="#ffffff" fill-opacity="1"><g transform="translate(1317.281252, 716.974883)"><g><path d="M 10.90625 -8.265625 C 11.050781 -8.421875 11.132812 -8.25 11.15625 -7.75 C 11.175781 -7.25 10.742188 -6.535156 9.859375 -5.609375 C 8.972656 -4.679688 8.039062 -4.234375 7.0625 -4.265625 C 6.84375 -4.273438 6.660156 -4.25 6.515625 -4.1875 C 6.367188 -4.132812 6.242188 -4.007812 6.140625 -3.8125 C 6.046875 -3.632812 5.925781 -3.472656 5.78125 -3.328125 C 5.78125 -3.328125 5.769531 -3.316406 5.75 -3.296875 C 5.175781 -2.628906 4.488281 -2.179688 3.6875 -1.953125 C 2.882812 -1.734375 2.113281 -1.78125 1.375 -2.09375 C 0.632812 -2.40625 0.0976562 -3.015625 -0.234375 -3.921875 C -0.503906 -4.742188 -0.550781 -5.570312 -0.375 -6.40625 C -0.226562 -7.125 0.015625 -7.8125 0.359375 -8.46875 C 0.785156 -9.320312 1.347656 -9.9375 2.046875 -10.3125 C 2.742188 -10.6875 3.539062 -10.910156 4.4375 -10.984375 C 5.769531 -11.085938 6.628906 -10.484375 7.015625 -9.171875 C 7.253906 -8.410156 7.328125 -7.632812 7.234375 -6.84375 C 7.222656 -6.675781 7.195312 -6.492188 7.15625 -6.296875 C 7.125 -6.171875 7.09375 -6.046875 7.0625 -5.921875 C 7.039062 -5.492188 7.234375 -5.304688 7.640625 -5.359375 C 8.753906 -5.578125 9.84375 -6.546875 10.90625 -8.265625 Z M 3.15625 -3.078125 C 3.832031 -3.421875 4.296875 -3.976562 4.546875 -4.75 C 3.378906 -5.445312 2.582031 -6.472656 2.15625 -7.828125 C 1.820312 -7.179688 1.628906 -6.425781 1.578125 -5.5625 C 1.523438 -4.707031 1.628906 -4.003906 1.890625 -3.453125 C 2.148438 -2.898438 2.570312 -2.773438 3.15625 -3.078125 Z M 5.015625 -6.28125 C 5.203125 -6.550781 5.304688 -6.882812 5.328125 -7.28125 C 5.347656 -7.6875 5.316406 -8.082031 5.234375 -8.46875 C 5.148438 -8.851562 5.039062 -9.15625 4.90625 -9.375 C 4.769531 -9.59375 4.628906 -9.660156 4.484375 -9.578125 C 4.234375 -9.328125 4.097656 -8.984375 4.078125 -8.546875 C 4.054688 -8.117188 4.132812 -7.6875 4.3125 -7.25 C 4.488281 -6.820312 4.722656 -6.5 5.015625 -6.28125 Z M 5.015625 -6.28125 "/></g></g></g><g fill="#ffffff" fill-opacity="1"><g transform="translate(1187.483631, 435.770848)"><g><path d="M 34.34375 1.75 C 26.53125 1.75 20.242188 -1.59375 15.484375 -8.28125 C 10.722656 -14.96875 8.34375 -24.957031 8.34375 -38.25 C 8.34375 -56.738281 12.742188 -69.21875 21.546875 -75.6875 C 26.128906 -78.914062 31.648438 -80.53125 38.109375 -80.53125 C 42.515625 -80.53125 48.035156 -79.675781 54.671875 -77.96875 L 54.671875 -101.953125 L 70.296875 -101.953125 L 70.296875 0 L 60.0625 0 L 58.3125 -7.953125 L 57.5 -7.953125 C 54.894531 -5.972656 52.738281 -4.441406 51.03125 -3.359375 C 49.332031 -2.285156 46.890625 -1.164062 43.703125 0 C 40.515625 1.164062 37.394531 1.75 34.34375 1.75 Z M 54.671875 -64.109375 C 49.203125 -66.347656 43.929688 -67.46875 38.859375 -67.46875 C 33.785156 -67.46875 30.484375 -66.523438 28.953125 -64.640625 C 25.992188 -60.867188 24.515625 -52.09375 24.515625 -38.3125 C 24.515625 -24.53125 26.21875 -16.203125 29.625 -13.328125 C 30.789062 -12.253906 32.765625 -11.71875 35.546875 -11.71875 C 40.753906 -11.71875 46.1875 -13.195312 51.84375 -16.15625 L 54.671875 -17.640625 Z M 54.671875 -64.109375 "/></g></g></g><g fill="#ffffff" fill-opacity="1"><g transform="translate(1268.819764, 435.770848)"><g><path d="M 29.09375 1.75 C 22.175781 1.75 16.628906 -0.425781 12.453125 -4.78125 C 8.273438 -9.132812 6.1875 -15.640625 6.1875 -24.296875 C 6.1875 -32.960938 8.992188 -39.269531 14.609375 -43.21875 C 20.222656 -47.175781 28.328125 -49.15625 38.921875 -49.15625 L 51.84375 -49.015625 C 51.84375 -57.722656 51.144531 -63 49.75 -64.84375 C 48.363281 -66.6875 45.648438 -67.609375 41.609375 -67.609375 C 37.566406 -67.609375 33.054688 -67.113281 28.078125 -66.125 C 23.097656 -65.132812 17.820312 -63.609375 12.25 -61.546875 L 8.078125 -72.984375 C 9.335938 -73.523438 11.019531 -74.222656 13.125 -75.078125 C 15.238281 -75.929688 19.164062 -77.050781 24.90625 -78.4375 C 30.65625 -79.832031 35.910156 -80.53125 40.671875 -80.53125 C 58.535156 -80.53125 67.46875 -70.832031 67.46875 -51.4375 L 67.46875 0 L 57.5 0 L 55.34375 -8.484375 L 54.671875 -8.484375 C 53.691406 -7.671875 52.367188 -6.703125 50.703125 -5.578125 C 49.046875 -4.460938 45.945312 -2.960938 41.40625 -1.078125 C 36.875 0.804688 32.769531 1.75 29.09375 1.75 Z M 51.84375 -36.359375 C 48.164062 -36.898438 43.179688 -37.171875 36.890625 -37.171875 C 30.609375 -37.171875 26.707031 -36.40625 25.1875 -34.875 C 23.207031 -33.082031 22.21875 -29.648438 22.21875 -24.578125 C 22.21875 -19.503906 22.867188 -16.046875 24.171875 -14.203125 C 25.472656 -12.367188 27.582031 -11.453125 30.5 -11.453125 C 33.414062 -11.453125 36.644531 -11.96875 40.1875 -13 C 43.738281 -14.03125 47.625 -15.53125 51.84375 -17.5 Z M 51.84375 -36.359375 "/></g></g></g></svg>